<svg width="25" height="20" viewBox="0 0 25 20" fill="none" xmlns="http://www.w3.org/2000/svg">
<path d="M22.4595 5.06797V5.72839C22.4595 12.3788 17.2973 20 7.85135 20C5.0628 20.0059 2.33347 19.2138 0 17.7215C0.405254 17.7753 0.814037 17.7996 1.22297 17.7942C3.53446 17.8004 5.78096 17.0468 7.60135 15.6544C6.52748 15.639 5.48592 15.2931 4.6247 14.6659C3.76348 14.0387 3.12642 13.1622 2.80405 12.1608C3.12393 12.2271 3.45005 12.2603 3.77703 12.2599C4.23362 12.26 4.68815 12.2 5.12838 12.0816C3.96526 11.855 2.91886 11.2403 2.16824 10.3428C1.41762 9.44528 1.00943 8.3207 1.01351 7.16149V7.09545C1.72514 7.48398 2.52295 7.69707 3.33784 7.71624C2.25311 7.01855 1.48188 5.94235 1.18174 4.70752C0.881594 3.47269 1.07519 2.17245 1.72297 1.07246C3.01369 2.6241 4.62405 3.89287 6.44936 4.79629C8.27467 5.69971 10.2741 6.21756 12.3176 6.31616C12.2164 5.94132 12.1687 5.55463 12.1757 5.16703C12.1376 4.14267 12.4235 3.13173 12.9944 2.27188C13.5653 1.41202 14.3934 0.745032 15.3661 0.36173C16.3387 -0.0215728 17.4086 -0.102562 18.43 0.129789C19.4514 0.362141 20.3748 0.896542 21.0743 1.66023C22.2242 1.43342 23.3272 1.02048 24.3378 0.438458C23.9546 1.6215 23.1392 2.62529 22.0473 3.25843C23.0673 3.12106 24.0617 2.84081 25 2.42631C24.32 3.44707 23.4598 4.34155 22.4595 5.06797Z" fill="white"/>
</svg>
